<?xml version="1.0" encoding="us-ascii" standalone="no"?><svg xmlns="http://www.w3.org/2000/svg" xmlns:xlink="http://www.w3.org/1999/xlink" contentStyleType="text/css" height="804px" preserveAspectRatio="none" style="width:637px;height:804px;background:#FFFFFF;" version="1.1" viewBox="0 0 637 804" width="637px" zoomAndPan="magnify"><defs/><g><rect fill="#FFFFFF" height="450.3906" style="stroke:#181818;stroke-width:1.0;" width="10" x="190" y="112.4297"/><rect fill="#FFFFFF" height="29.1328" style="stroke:#181818;stroke-width:1.0;" width="10" x="327" y="206.9609"/><rect fill="#FFFFFF" height="29.1328" style="stroke:#181818;stroke-width:1.0;" width="10" x="433" y="330.625"/><rect fill="#FFFFFF" height="29.1328" style="stroke:#181818;stroke-width:1.0;" width="10" x="539" y="439.1563"/><line style="stroke:#181818;stroke-width:0.5;stroke-dasharray:5.0,5.0;" x1="24" x2="24" y1="81.2969" y2="723.4844"/><line style="stroke:#181818;stroke-width:0.5;stroke-dasharray:5.0,5.0;" x1="195" x2="195" y1="81.2969" y2="723.4844"/><line style="stroke:#181818;stroke-width:0.5;stroke-dasharray:5.0,5.0;" x1="332" x2="332" y1="81.2969" y2="723.4844"/><line style="stroke:#181818;stroke-width:0.5;stroke-dasharray:5.0,5.0;" x1="438" x2="438" y1="81.2969" y2="723.4844"/><line style="stroke:#181818;stroke-width:0.5;stroke-dasharray:5.0,5.0;" x1="544" x2="544" y1="81.2969" y2="723.4844"/><text fill="#000000" font-family="sans-serif" font-size="14" lengthAdjust="spacing" textLength="32" x="5" y="77.9951">Main</text><ellipse cx="24" cy="13.5" fill="#E2E2F0" rx="8" ry="8" style="stroke:#181818;stroke-width:0.5;"/><path d="M24,21.5 L24,48.5 M11,29.5 L37,29.5 M24,48.5 L11,63.5 M24,48.5 L37,63.5 " fill="none" style="stroke:#181818;stroke-width:0.5;"/><text fill="#000000" font-family="sans-serif" font-size="14" lengthAdjust="spacing" textLength="32" x="5" y="735.4795">Main</text><ellipse cx="24" cy="747.2813" fill="#E2E2F0" rx="8" ry="8" style="stroke:#181818;stroke-width:0.5;"/><path d="M24,755.2813 L24,782.2813 M11,763.2813 L37,763.2813 M24,782.2813 L11,797.2813 M24,782.2813 L37,797.2813 " fill="none" style="stroke:#181818;stroke-width:0.5;"/><rect fill="#E2E2F0" height="30.2969" rx="2.5" ry="2.5" style="stroke:#181818;stroke-width:0.5;" width="106" x="142" y="50"/><text fill="#000000" font-family="sans-serif" font-size="14" lengthAdjust="spacing" textLength="92" x="149" y="69.9951">myWaitGroup</text><rect fill="#E2E2F0" height="30.2969" rx="2.5" ry="2.5" style="stroke:#181818;stroke-width:0.5;" width="106" x="142" y="722.4844"/><text fill="#000000" font-family="sans-serif" font-size="14" lengthAdjust="spacing" textLength="92" x="149" y="742.4795">myWaitGroup</text><rect fill="#E2E2F0" height="30.2969" rx="2.5" ry="2.5" style="stroke:#181818;stroke-width:0.5;" width="96" x="284" y="50"/><text fill="#000000" font-family="sans-serif" font-size="14" lengthAdjust="spacing" textLength="82" x="291" y="69.9951">Goroutine 1</text><rect fill="#E2E2F0" height="30.2969" rx="2.5" ry="2.5" style="stroke:#181818;stroke-width:0.5;" width="96" x="284" y="722.4844"/><text fill="#000000" font-family="sans-serif" font-size="14" lengthAdjust="spacing" textLength="82" x="291" y="742.4795">Goroutine 1</text><rect fill="#E2E2F0" height="30.2969" rx="2.5" ry="2.5" style="stroke:#181818;stroke-width:0.5;" width="96" x="390" y="50"/><text fill="#000000" font-family="sans-serif" font-size="14" lengthAdjust="spacing" textLength="82" x="397" y="69.9951">Goroutine 2</text><rect fill="#E2E2F0" height="30.2969" rx="2.5" ry="2.5" style="stroke:#181818;stroke-width:0.5;" width="96" x="390" y="722.4844"/><text fill="#000000" font-family="sans-serif" font-size="14" lengthAdjust="spacing" textLength="82" x="397" y="742.4795">Goroutine 2</text><rect fill="#E2E2F0" height="30.2969" rx="2.5" ry="2.5" style="stroke:#181818;stroke-width:0.5;" width="96" x="496" y="50"/><text fill="#000000" font-family="sans-serif" font-size="14" lengthAdjust="spacing" textLength="82" x="503" y="69.9951">Goroutine 3</text><rect fill="#E2E2F0" height="30.2969" rx="2.5" ry="2.5" style="stroke:#181818;stroke-width:0.5;" width="96" x="496" y="722.4844"/><text fill="#000000" font-family="sans-serif" font-size="14" lengthAdjust="spacing" textLength="82" x="503" y="742.4795">Goroutine 3</text><rect fill="#FFFFFF" height="450.3906" style="stroke:#181818;stroke-width:1.0;" width="10" x="190" y="112.4297"/><rect fill="#FFFFFF" height="29.1328" style="stroke:#181818;stroke-width:1.0;" width="10" x="327" y="206.9609"/><rect fill="#FFFFFF" height="29.1328" style="stroke:#181818;stroke-width:1.0;" width="10" x="433" y="330.625"/><rect fill="#FFFFFF" height="29.1328" style="stroke:#181818;stroke-width:1.0;" width="10" x="539" y="439.1563"/><polygon fill="#181818" points="178,108.4297,188,112.4297,178,116.4297,182,112.4297" style="stroke:#181818;stroke-width:1.0;"/><line style="stroke:#181818;stroke-width:1.0;" x1="24" x2="184" y1="112.4297" y2="112.4297"/><text fill="#000000" font-family="sans-serif" font-size="13" lengthAdjust="spacing" textLength="43" x="31" y="107.3638">Add(3)</text><path d="M205,125.4297 L205,180.4297 L630,180.4297 L630,135.4297 L620,125.4297 L205,125.4297 " fill="#FEFFDD" style="stroke:#181818;stroke-width:0.5;"/><path d="M620,125.4297 L620,135.4297 L630,135.4297 L620,125.4297 " fill="#FEFFDD" style="stroke:#181818;stroke-width:0.5;"/><text fill="#000000" font-family="sans-serif" font-size="13" lengthAdjust="spacing" textLength="145" x="211" y="142.4966">&#1044;&#1086;&#1073;&#1072;&#1074;&#1083;&#1103;&#1077;&#1084; 3 &#1079;&#1072;&#1076;&#1072;&#1095;&#1080;:</text><text fill="#000000" font-family="sans-serif" font-size="13" lengthAdjust="spacing" textLength="192" x="211" y="157.6294">counter &#1091;&#1074;&#1077;&#1083;&#1080;&#1095;&#1080;&#1074;&#1072;&#1077;&#1090;&#1089;&#1103; &#1085;&#1072; 3.</text><text fill="#000000" font-family="sans-serif" font-size="13" lengthAdjust="spacing" textLength="404" x="211" y="172.7622">&#1050;&#1072;&#1085;&#1072;&#1083; done &#1086;&#1089;&#1090;&#1072;&#1105;&#1090;&#1089;&#1103; &#1086;&#1090;&#1082;&#1088;&#1099;&#1090;&#1099;&#1084; &#1076;&#1086; &#1079;&#1072;&#1074;&#1077;&#1088;&#1096;&#1077;&#1085;&#1080;&#1103; &#1074;&#1089;&#1077;&#1093; Done.</text><polygon fill="#181818" points="315,202.9609,325,206.9609,315,210.9609,319,206.9609" style="stroke:#181818;stroke-width:1.0;"/><line style="stroke:#181818;stroke-width:1.0;" x1="24" x2="321" y1="206.9609" y2="206.9609"/><text fill="#000000" font-family="sans-serif" font-size="13" lengthAdjust="spacing" textLength="30" x="31" y="201.895">start</text><polygon fill="#181818" points="211,232.0938,201,236.0938,211,240.0938,207,236.0938" style="stroke:#181818;stroke-width:1.0;"/><line style="stroke:#181818;stroke-width:1.0;" x1="205" x2="331" y1="236.0938" y2="236.0938"/><text fill="#000000" font-family="sans-serif" font-size="13" lengthAdjust="spacing" textLength="103" x="217" y="231.0278">Done() via defer</text><path d="M205,249.0938 L205,304.0938 L518,304.0938 L518,259.0938 L508,249.0938 L205,249.0938 " fill="#FEFFDD" style="stroke:#181818;stroke-width:0.5;"/><path d="M508,249.0938 L508,259.0938 L518,259.0938 L508,249.0938 " fill="#FEFFDD" style="stroke:#181818;stroke-width:0.5;"/><text fill="#000000" font-family="sans-serif" font-size="13" lengthAdjust="spacing" textLength="209" x="211" y="266.1606">Goroutine 1 &#1079;&#1072;&#1074;&#1077;&#1088;&#1096;&#1080;&#1083;&#1072; &#1079;&#1072;&#1076;&#1072;&#1095;&#1091;:</text><text fill="#000000" font-family="sans-serif" font-size="13" lengthAdjust="spacing" textLength="180" x="211" y="281.2935">counter &#1091;&#1084;&#1077;&#1085;&#1100;&#1096;&#1072;&#1077;&#1090;&#1089;&#1103; &#1085;&#1072; 1.</text><text fill="#000000" font-family="sans-serif" font-size="13" lengthAdjust="spacing" textLength="292" x="211" y="296.4263">&#1045;&#1089;&#1083;&#1080; counter = 0, &#1082;&#1072;&#1085;&#1072;&#1083; done &#1079;&#1072;&#1082;&#1088;&#1099;&#1074;&#1072;&#1077;&#1090;&#1089;&#1103;.</text><polygon fill="#181818" points="421,326.625,431,330.625,421,334.625,425,330.625" style="stroke:#181818;stroke-width:1.0;"/><line style="stroke:#181818;stroke-width:1.0;" x1="24" x2="427" y1="330.625" y2="330.625"/><text fill="#000000" font-family="sans-serif" font-size="13" lengthAdjust="spacing" textLength="30" x="31" y="325.5591">start</text><polygon fill="#181818" points="211,355.7578,201,359.7578,211,363.7578,207,359.7578" style="stroke:#181818;stroke-width:1.0;"/><line style="stroke:#181818;stroke-width:1.0;" x1="205" x2="437" y1="359.7578" y2="359.7578"/><text fill="#000000" font-family="sans-serif" font-size="13" lengthAdjust="spacing" textLength="103" x="217" y="354.6919">Done() via defer</text><path d="M205,372.7578 L205,412.7578 L435,412.7578 L435,382.7578 L425,372.7578 L205,372.7578 " fill="#FEFFDD" style="stroke:#181818;stroke-width:0.5;"/><path d="M425,372.7578 L425,382.7578 L435,382.7578 L425,372.7578 " fill="#FEFFDD" style="stroke:#181818;stroke-width:0.5;"/><text fill="#000000" font-family="sans-serif" font-size="13" lengthAdjust="spacing" textLength="209" x="211" y="389.8247">Goroutine 2 &#1079;&#1072;&#1074;&#1077;&#1088;&#1096;&#1080;&#1083;&#1072; &#1079;&#1072;&#1076;&#1072;&#1095;&#1091;:</text><text fill="#000000" font-family="sans-serif" font-size="13" lengthAdjust="spacing" textLength="180" x="211" y="404.9575">counter &#1091;&#1084;&#1077;&#1085;&#1100;&#1096;&#1072;&#1077;&#1090;&#1089;&#1103; &#1085;&#1072; 1.</text><polygon fill="#181818" points="527,435.1563,537,439.1563,527,443.1563,531,439.1563" style="stroke:#181818;stroke-width:1.0;"/><line style="stroke:#181818;stroke-width:1.0;" x1="24" x2="533" y1="439.1563" y2="439.1563"/><text fill="#000000" font-family="sans-serif" font-size="13" lengthAdjust="spacing" textLength="30" x="31" y="434.0903">start</text><polygon fill="#181818" points="211,464.2891,201,468.2891,211,472.2891,207,468.2891" style="stroke:#181818;stroke-width:1.0;"/><line style="stroke:#181818;stroke-width:1.0;" x1="205" x2="543" y1="468.2891" y2="468.2891"/><text fill="#000000" font-family="sans-serif" font-size="13" lengthAdjust="spacing" textLength="103" x="217" y="463.2231">Done() via defer</text><path d="M205,481.2891 L205,536.2891 L494,536.2891 L494,491.2891 L484,481.2891 L205,481.2891 " fill="#FEFFDD" style="stroke:#181818;stroke-width:0.5;"/><path d="M484,481.2891 L484,491.2891 L494,491.2891 L484,481.2891 " fill="#FEFFDD" style="stroke:#181818;stroke-width:0.5;"/><text fill="#000000" font-family="sans-serif" font-size="13" lengthAdjust="spacing" textLength="209" x="211" y="498.356">Goroutine 3 &#1079;&#1072;&#1074;&#1077;&#1088;&#1096;&#1080;&#1083;&#1072; &#1079;&#1072;&#1076;&#1072;&#1095;&#1091;:</text><text fill="#000000" font-family="sans-serif" font-size="13" lengthAdjust="spacing" textLength="180" x="211" y="513.4888">counter &#1091;&#1084;&#1077;&#1085;&#1100;&#1096;&#1072;&#1077;&#1090;&#1089;&#1103; &#1085;&#1072; 1.</text><text fill="#000000" font-family="sans-serif" font-size="13" lengthAdjust="spacing" textLength="268" x="211" y="528.6216">counter = 0 &#8594; &#1082;&#1072;&#1085;&#1072;&#1083; done &#1079;&#1072;&#1082;&#1088;&#1099;&#1074;&#1072;&#1077;&#1090;&#1089;&#1103;.</text><polygon fill="#181818" points="183,558.8203,193,562.8203,183,566.8203,187,562.8203" style="stroke:#181818;stroke-width:1.0;"/><line style="stroke:#181818;stroke-width:1.0;" x1="24" x2="189" y1="562.8203" y2="562.8203"/><text fill="#000000" font-family="sans-serif" font-size="13" lengthAdjust="spacing" textLength="37" x="31" y="557.7544">Wait()</text><path d="M200,575.8203 L200,615.8203 L534,615.8203 L534,585.8203 L524,575.8203 L200,575.8203 " fill="#FEFFDD" style="stroke:#181818;stroke-width:0.5;"/><path d="M524,575.8203 L524,585.8203 L534,585.8203 L524,575.8203 " fill="#FEFFDD" style="stroke:#181818;stroke-width:0.5;"/><text fill="#000000" font-family="sans-serif" font-size="13" lengthAdjust="spacing" textLength="313" x="206" y="592.8872">Wait &#1073;&#1083;&#1086;&#1082;&#1080;&#1088;&#1091;&#1077;&#1090; &#1074;&#1099;&#1087;&#1086;&#1083;&#1085;&#1077;&#1085;&#1080;&#1077;, &#1087;&#1086;&#1082;&#1072; counter &gt; 0.</text><text fill="#000000" font-family="sans-serif" font-size="13" lengthAdjust="spacing" textLength="284" x="206" y="608.02">&#1055;&#1086;&#1089;&#1083;&#1077; &#1079;&#1072;&#1082;&#1088;&#1099;&#1090;&#1080;&#1103; done Wait &#1074;&#1086;&#1079;&#1074;&#1088;&#1072;&#1097;&#1072;&#1077;&#1090;&#1089;&#1103;.</text><line style="stroke:#181818;stroke-width:1.0;" x1="24" x2="66" y1="642.2188" y2="642.2188"/><line style="stroke:#181818;stroke-width:1.0;" x1="66" x2="66" y1="642.2188" y2="655.2188"/><line style="stroke:#181818;stroke-width:1.0;" x1="25" x2="66" y1="655.2188" y2="655.2188"/><polygon fill="#181818" points="35,651.2188,25,655.2188,35,659.2188,31,655.2188" style="stroke:#181818;stroke-width:1.0;"/><text fill="#000000" font-family="sans-serif" font-size="13" lengthAdjust="spacing" textLength="157" x="31" y="637.1528">&#1042;&#1089;&#1077; &#1079;&#1072;&#1076;&#1072;&#1095;&#1080; &#1079;&#1072;&#1074;&#1077;&#1088;&#1096;&#1077;&#1085;&#1099;</text><path d="M29,668.2188 L29,708.2188 L411,708.2188 L411,678.2188 L401,668.2188 L29,668.2188 " fill="#FEFFDD" style="stroke:#181818;stroke-width:0.5;"/><path d="M401,668.2188 L401,678.2188 L411,678.2188 L401,668.2188 " fill="#FEFFDD" style="stroke:#181818;stroke-width:0.5;"/><text fill="#000000" font-family="sans-serif" font-size="13" lengthAdjust="spacing" textLength="177" x="35" y="685.2856">&#1042;&#1089;&#1077; &#1075;&#1086;&#1088;&#1091;&#1090;&#1080;&#1085;&#1099; &#1079;&#1072;&#1074;&#1077;&#1088;&#1096;&#1077;&#1085;&#1099;,</text><text fill="#000000" font-family="sans-serif" font-size="13" lengthAdjust="spacing" textLength="361" x="35" y="700.4185">&#1082;&#1072;&#1085;&#1072;&#1083; done &#1087;&#1091;&#1089;&#1090;, &#1087;&#1088;&#1086;&#1075;&#1088;&#1072;&#1084;&#1084;&#1072; &#1079;&#1072;&#1074;&#1077;&#1088;&#1096;&#1072;&#1077;&#1090; &#1074;&#1099;&#1087;&#1086;&#1083;&#1085;&#1077;&#1085;&#1080;&#1077;.</text><!--SRC=[hLNBRjDG4DtxAqRTD9L2rTYxI5H2GlAATTTMx88Ns97h5h5h4a51heWei673WXy8QTEOlFeBSt-1B-7CTPtOUI6LRfoRUPypS-Vk4d_XCVUuprELy6_YEvwfDizuXACwn-4QtnvFUA8Imsd4OKGl73ymTeb_gWlkgHRCfvpoYDCwuPj9Pl2OujobDuuVsr5usYHEIRKHBIM-HfPprO5XAecDfXF5ViDlEa5CEw_V7kK-E-ISq95TrjiXLB4VU5JJUhksIMzcUdEJtihqbW4uWefK1qmCm4WAR2dEFHweDW7IXVgCuaKuAa82Hh8CxVla49NMwPdhLgmz8mXZZoB_vQkOmcE1GCHVGSilJVPOTP5cGXRn488RC8NGTHWrmjCWzg8DbQ2GxdtIVOdu7MByup6v8V20LI6_fslLfjBC4QXE84YG4AbcMKv4X_m3Sg1xOjfNBOZUqND4sZUym2N183ttpno00OQS9XtW3lrhISCrHHWSn4EGZlgqtD_Ed22xLgUJ6CrOX4Ntx5fEdkIkxD6Pxv3h7NlHEXeBxIyZIMMI2uIgpXAX4m6hBc6wH6PDa_aDSC3ttECf7LJrH9Sebl2QqM9F2dovNX7QDiRwSayqJTiOCrSPCmtRV1XZvYCojXQnkGsnllqIvd8hOciLiMNOriCGMuyw8uNHe3_lh_vlEXPh1wEGy73XHB80AtkblN8lMWDMD8J5CfQrZRiCKlC1IsIVGp7DhZaFgdh3IzbpB8TqeCV_XsmFs0uAAAGv841ZozBquJr4P3mAwkE_81PNHlQQtEXoRXTNOAN2EMZvnOjo9Mkfj2PNzXSUa38j-eMYkU_IQxF6lohMoxtKmwlQrPMNC9-WFCHcC0LQ_W80]--></g></svg>